<?xml version="1.0" standalone="no"?><!DOCTYPE svg PUBLIC "-//W3C//DTD SVG 1.1//EN" "http://www.w3.org/Graphics/SVG/1.1/DTD/svg11.dtd"><svg t="1566956050681" class="icon" viewBox="0 0 1024 1024" version="1.1" xmlns="http://www.w3.org/2000/svg" p-id="1105" xmlns:xlink="http://www.w3.org/1999/xlink" width="200" height="200"><defs><style type="text/css"></style></defs><path d="M512 124.928c-214.008832-0.23552-387.692544 173.063168-387.929088 387.072-0.236544 214.001664 173.063168 387.692544 387.072 387.936256C725.151744 900.165632 898.829312 726.86592 899.072 512.857088c0-0.282624 0-0.57344 0-0.857088C898.829312 298.32192 725.67808 125.16352 512 124.928M512 69.632c244.323328 0 442.368 198.05184 442.368 442.368 0 244.323328-198.044672 442.368-442.368 442.368-244.31616 0-442.368-198.044672-442.368-442.368C69.632 267.68384 267.68384 69.632 512 69.632L512 69.632zM474.855424 688.282624c-7.337984 0.013312-14.370816-2.90304-19.54816-8.09984L291.990528 512.567296l163.329024-167.629824c10.610688-10.9824 28.11392-11.285504 39.09632-0.681984 10.9824 10.610688 11.285504 28.11392 0.674816 39.09632-0.222208 0.229376-0.44544 0.458752-0.674816 0.681984L365.855744 512.59392 494.415872 641.154048C505.176064 651.995136 505.10848 669.4912 494.27456 680.26368 489.110528 685.39392 482.130944 688.270336 474.855424 688.282624zM705.806336 539.35104l-355.549184 0c-15.268864 0-27.648-12.393472-27.648-27.655168 0-15.26784 12.379136-27.648 27.648-27.648l355.549184 0c15.282176 0 27.648 12.38016 27.648 27.648C733.454336 526.957568 721.088512 539.35104 705.806336 539.35104z" p-id="1106" fill="#ffffff"></path></svg>